<svg width="24" height="24" viewBox="0 0 24 24" fill="none" xmlns="http://www.w3.org/2000/svg">
<path d="M13 16.1749L17.9 11.2749C18.1 11.0749 18.3334 10.9789 18.6001 10.9869C18.8667 10.9949 19.1 11.0992 19.3 11.2999C19.4834 11.4999 19.5794 11.7332 19.588 11.9999C19.5967 12.2666 19.5007 12.4999 19.3 12.6999L12.7 19.2999C12.6 19.3999 12.4917 19.4709 12.375 19.5129C12.2584 19.5549 12.1334 19.5752 12 19.5739C11.8667 19.5726 11.7417 19.5516 11.625 19.5109C11.5084 19.4702 11.4 19.3996 11.3 19.2989L4.70005 12.6989C4.51672 12.5156 4.42505 12.2862 4.42505 12.0109C4.42505 11.7356 4.51672 11.4982 4.70005 11.2989C4.90005 11.0989 5.13772 10.9989 5.41305 10.9989C5.68838 10.9989 5.92572 11.0989 6.12505 11.2989L11 16.1749V4.99991C11 4.71658 11.096 4.47891 11.288 4.28691C11.48 4.09491 11.7174 3.99924 12 3.99991C12.2827 4.00058 12.5204 4.09658 12.713 4.28791C12.9057 4.47925 13.0014 4.71658 13 4.99991L13 16.1749Z" fill="black"/>
</svg>